<?xml version="1.0" encoding="UTF-8" standalone="no"?>
<!DOCTYPE svg PUBLIC "-//W3C//DTD SVG 1.1//EN"
 "http://www.w3.org/Graphics/SVG/1.1/DTD/svg11.dtd">
<!-- Generated by graphviz version 2.40.1 (20161225.0304)
 -->
<!-- Title: dependencies Pages: 1 -->
<svg width="3119pt" height="284pt"
 viewBox="0.00 0.00 3119.00 284.00" xmlns="http://www.w3.org/2000/svg" xmlns:xlink="http://www.w3.org/1999/xlink">
<g id="graph0" class="graph" transform="scale(1 1) rotate(0) translate(4 280)">
<title>dependencies</title>
<polygon fill="#ffffff" stroke="transparent" points="-4,4 -4,-280 3115,-280 3115,4 -4,4"/>
<text text-anchor="start" x="1534.5091" y="-42.4" font-family="sans-serif" font-weight="bold" font-size="14.00" fill="#000000">Legend</text>
<polygon fill="#ffffb3" stroke="transparent" points="1321.5,-10 1321.5,-30 1341.5,-30 1341.5,-10 1321.5,-10"/>
<text text-anchor="start" x="1345.129" y="-15.4" font-family="sans-serif" font-size="14.00" fill="#000000"> &#160;Declarations</text>
<polygon fill="#8dd3c7" stroke="transparent" points="1434.5,-10 1434.5,-30 1454.5,-30 1454.5,-10 1434.5,-10"/>
<text text-anchor="start" x="1458.2251" y="-15.4" font-family="sans-serif" font-size="14.00" fill="#000000"> &#160;Module</text>
<polygon fill="#80b1d3" stroke="transparent" points="1520.5,-10 1520.5,-30 1540.5,-30 1540.5,-10 1520.5,-10"/>
<text text-anchor="start" x="1544.2812" y="-15.4" font-family="sans-serif" font-size="14.00" fill="#000000"> &#160;Bootstrap</text>
<polygon fill="#fdb462" stroke="transparent" points="1617.5,-10 1617.5,-30 1637.5,-30 1637.5,-10 1617.5,-10"/>
<text text-anchor="start" x="1641.1732" y="-15.4" font-family="sans-serif" font-size="14.00" fill="#000000"> &#160;Providers</text>
<polygon fill="#fb8072" stroke="transparent" points="1713.5,-10 1713.5,-30 1733.5,-30 1733.5,-10 1713.5,-10"/>
<text text-anchor="start" x="1737.2258" y="-15.4" font-family="sans-serif" font-size="14.00" fill="#000000"> &#160;Exports</text>
<g id="clust1" class="cluster">
<title>cluster_AppModule</title>
<polygon fill="none" stroke="#000000" stroke-dasharray="1,5" points="8,-70 8,-268 3103,-268 3103,-70 8,-70"/>
</g>
<g id="clust2" class="cluster">
<title>cluster_AppModule_declarations</title>
<polygon fill="none" stroke="#000000" points="471,-78 471,-130 3095,-130 3095,-78 471,-78"/>
</g>
<g id="clust21" class="cluster">
<title>cluster_AppModule_imports</title>
<polygon fill="none" stroke="#000000" points="285,-78 285,-130 463,-130 463,-78 285,-78"/>
</g>
<g id="clust23" class="cluster">
<title>cluster_AppModule_bootstrap</title>
<polygon fill="none" stroke="#000000" points="1435,-208 1435,-260 1559,-260 1559,-208 1435,-208"/>
</g>
<g id="clust24" class="cluster">
<title>cluster_AppModule_providers</title>
<polygon fill="none" stroke="#000000" points="16,-78 16,-130 277,-130 277,-78 16,-78"/>
</g>
<!-- AppComponent -->
<g id="node1" class="node">
<title>AppComponent</title>
<polygon fill="#ffffb3" stroke="#000000" points="3086.9399,-122 2981.0601,-122 2981.0601,-86 3086.9399,-86 3086.9399,-122"/>
<text text-anchor="middle" x="3034" y="-99.8" font-family="Times,serif" font-size="14.00" fill="#000000">AppComponent</text>
</g>
<!-- AppModule -->
<g id="node19" class="node">
<title>AppModule</title>
<polygon fill="#8dd3c7" stroke="#000000" points="1538.6571,-187 1535.6571,-191 1514.6571,-191 1511.6571,-187 1455.3429,-187 1455.3429,-151 1538.6571,-151 1538.6571,-187"/>
<text text-anchor="middle" x="1497" y="-164.8" font-family="Times,serif" font-size="14.00" fill="#000000">AppModule</text>
</g>
<!-- AppComponent&#45;&gt;AppModule -->
<g id="edge1" class="edge">
<title>AppComponent&#45;&gt;AppModule</title>
<path fill="none" stroke="#000000" d="M3034,-122.1532C3034,-145.7566 3034,-184 3034,-184 3034,-184 1548.9082,-184 1548.9082,-184"/>
<polygon fill="#000000" stroke="#000000" points="1548.9082,-180.5001 1538.9082,-184 1548.9081,-187.5001 1548.9082,-180.5001"/>
</g>
<!-- NavbarComponent -->
<g id="node2" class="node">
<title>NavbarComponent</title>
<polygon fill="#ffffb3" stroke="#000000" points="2963.0297,-122 2840.9703,-122 2840.9703,-86 2963.0297,-86 2963.0297,-122"/>
<text text-anchor="middle" x="2902" y="-99.8" font-family="Times,serif" font-size="14.00" fill="#000000">NavbarComponent</text>
</g>
<!-- NavbarComponent&#45;&gt;AppModule -->
<g id="edge2" class="edge">
<title>NavbarComponent&#45;&gt;AppModule</title>
<path fill="none" stroke="#000000" d="M2902,-122.2479C2902,-145.0179 2902,-181 2902,-181 2902,-181 1548.6677,-181 1548.6677,-181"/>
<polygon fill="#000000" stroke="#000000" points="1548.6677,-177.5001 1538.6677,-181 1548.6676,-184.5001 1548.6677,-177.5001"/>
</g>
<!-- EmpleadoComponent -->
<g id="node3" class="node">
<title>EmpleadoComponent</title>
<polygon fill="#ffffb3" stroke="#000000" points="2823.0954,-122 2684.9046,-122 2684.9046,-86 2823.0954,-86 2823.0954,-122"/>
<text text-anchor="middle" x="2754" y="-99.8" font-family="Times,serif" font-size="14.00" fill="#000000">EmpleadoComponent</text>
</g>
<!-- EmpleadoComponent&#45;&gt;AppModule -->
<g id="edge3" class="edge">
<title>EmpleadoComponent&#45;&gt;AppModule</title>
<path fill="none" stroke="#000000" d="M2754,-122.2921C2754,-144.2057 2754,-178 2754,-178 2754,-178 1548.8226,-178 1548.8226,-178"/>
<polygon fill="#000000" stroke="#000000" points="1548.8227,-174.5001 1538.8226,-178 1548.8226,-181.5001 1548.8227,-174.5001"/>
</g>
<!-- MarcaComponent -->
<g id="node4" class="node">
<title>MarcaComponent</title>
<polygon fill="#ffffb3" stroke="#000000" points="2666.5814,-122 2549.4186,-122 2549.4186,-86 2666.5814,-86 2666.5814,-122"/>
<text text-anchor="middle" x="2608" y="-99.8" font-family="Times,serif" font-size="14.00" fill="#000000">MarcaComponent</text>
</g>
<!-- MarcaComponent&#45;&gt;AppModule -->
<g id="edge4" class="edge">
<title>MarcaComponent&#45;&gt;AppModule</title>
<path fill="none" stroke="#000000" d="M2608,-122.0267C2608,-142.7672 2608,-174 2608,-174 2608,-174 1548.8597,-174 1548.8597,-174"/>
<polygon fill="#000000" stroke="#000000" points="1548.8598,-170.5001 1538.8597,-174 1548.8597,-177.5001 1548.8598,-170.5001"/>
</g>
<!-- TipoequipoComponent -->
<g id="node5" class="node">
<title>TipoequipoComponent</title>
<polygon fill="#ffffb3" stroke="#000000" points="2531.8808,-122 2386.1192,-122 2386.1192,-86 2531.8808,-86 2531.8808,-122"/>
<text text-anchor="middle" x="2459" y="-99.8" font-family="Times,serif" font-size="14.00" fill="#000000">TipoequipoComponent</text>
</g>
<!-- TipoequipoComponent&#45;&gt;AppModule -->
<g id="edge5" class="edge">
<title>TipoequipoComponent&#45;&gt;AppModule</title>
<path fill="none" stroke="#000000" d="M2459,-122.308C2459,-142.1455 2459,-171 2459,-171 2459,-171 1548.9545,-171 1548.9545,-171"/>
<polygon fill="#000000" stroke="#000000" points="1548.9546,-167.5001 1538.9545,-171 1548.9545,-174.5001 1548.9546,-167.5001"/>
</g>
<!-- ModeloComponent -->
<g id="node6" class="node">
<title>ModeloComponent</title>
<polygon fill="#ffffb3" stroke="#000000" points="2368.3823,-122 2243.6177,-122 2243.6177,-86 2368.3823,-86 2368.3823,-122"/>
<text text-anchor="middle" x="2306" y="-99.8" font-family="Times,serif" font-size="14.00" fill="#000000">ModeloComponent</text>
</g>
<!-- ModeloComponent&#45;&gt;AppModule -->
<g id="edge6" class="edge">
<title>ModeloComponent&#45;&gt;AppModule</title>
<path fill="none" stroke="#000000" d="M2306,-122.1686C2306,-141.0898 2306,-168 2306,-168 2306,-168 1548.7918,-168 1548.7918,-168"/>
<polygon fill="#000000" stroke="#000000" points="1548.7918,-164.5001 1538.7918,-168 1548.7918,-171.5001 1548.7918,-164.5001"/>
</g>
<!-- ManualComponent -->
<g id="node7" class="node">
<title>ManualComponent</title>
<polygon fill="#ffffb3" stroke="#000000" points="2226.0968,-122 2101.9032,-122 2101.9032,-86 2226.0968,-86 2226.0968,-122"/>
<text text-anchor="middle" x="2164" y="-99.8" font-family="Times,serif" font-size="14.00" fill="#000000">ManualComponent</text>
</g>
<!-- ManualComponent&#45;&gt;AppModule -->
<g id="edge7" class="edge">
<title>ManualComponent&#45;&gt;AppModule</title>
<path fill="none" stroke="#000000" d="M2164,-122.302C2164,-140.2699 2164,-165 2164,-165 2164,-165 1548.7238,-165 1548.7238,-165"/>
<polygon fill="#000000" stroke="#000000" points="1548.7239,-161.5001 1538.7238,-165 1548.7238,-168.5001 1548.7239,-161.5001"/>
</g>
<!-- ProtocoloComponent -->
<g id="node8" class="node">
<title>ProtocoloComponent</title>
<polygon fill="#ffffb3" stroke="#000000" points="2083.7716,-122 1948.2284,-122 1948.2284,-86 2083.7716,-86 2083.7716,-122"/>
<text text-anchor="middle" x="2016" y="-99.8" font-family="Times,serif" font-size="14.00" fill="#000000">ProtocoloComponent</text>
</g>
<!-- ProtocoloComponent&#45;&gt;AppModule -->
<g id="edge8" class="edge">
<title>ProtocoloComponent&#45;&gt;AppModule</title>
<path fill="none" stroke="#000000" d="M2016,-122.0352C2016,-138.7344 2016,-161 2016,-161 2016,-161 1549.0323,-161 1549.0323,-161"/>
<polygon fill="#000000" stroke="#000000" points="1549.0324,-157.5001 1539.0323,-161 1549.0323,-164.5001 1549.0324,-157.5001"/>
</g>
<!-- TorpedoComponent -->
<g id="node9" class="node">
<title>TorpedoComponent</title>
<polygon fill="#ffffb3" stroke="#000000" points="1930.2604,-122 1801.7396,-122 1801.7396,-86 1930.2604,-86 1930.2604,-122"/>
<text text-anchor="middle" x="1866" y="-99.8" font-family="Times,serif" font-size="14.00" fill="#000000">TorpedoComponent</text>
</g>
<!-- TorpedoComponent&#45;&gt;AppModule -->
<g id="edge9" class="edge">
<title>TorpedoComponent&#45;&gt;AppModule</title>
<path fill="none" stroke="#000000" d="M1866,-122.2819C1866,-137.9478 1866,-158 1866,-158 1866,-158 1548.9697,-158 1548.9697,-158"/>
<polygon fill="#000000" stroke="#000000" points="1548.9698,-154.5001 1538.9697,-158 1548.9697,-161.5001 1548.9698,-154.5001"/>
</g>
<!-- ListmanualComponent -->
<g id="node10" class="node">
<title>ListmanualComponent</title>
<polygon fill="#ffffb3" stroke="#000000" points="1783.3216,-122 1638.6784,-122 1638.6784,-86 1783.3216,-86 1783.3216,-122"/>
<text text-anchor="middle" x="1711" y="-99.8" font-family="Times,serif" font-size="14.00" fill="#000000">ListmanualComponent</text>
</g>
<!-- ListmanualComponent&#45;&gt;AppModule -->
<g id="edge10" class="edge">
<title>ListmanualComponent&#45;&gt;AppModule</title>
<path fill="none" stroke="#000000" d="M1711,-122.1243C1711,-136.7832 1711,-155 1711,-155 1711,-155 1548.7694,-155 1548.7694,-155"/>
<polygon fill="#000000" stroke="#000000" points="1548.7694,-151.5001 1538.7694,-155 1548.7693,-158.5001 1548.7694,-151.5001"/>
</g>
<!-- DataFilterPipe -->
<g id="node11" class="node">
<title>DataFilterPipe</title>
<polygon fill="#ffffb3" stroke="#000000" points="1620.6444,-122 1523.3556,-122 1523.3556,-86 1620.6444,-86 1620.6444,-122"/>
<text text-anchor="middle" x="1572" y="-99.8" font-family="Times,serif" font-size="14.00" fill="#000000">DataFilterPipe</text>
</g>
<!-- DataFilterPipe&#45;&gt;AppModule -->
<g id="edge11" class="edge">
<title>DataFilterPipe&#45;&gt;AppModule</title>
<path fill="none" stroke="#000000" d="M1531.0032,-122.1061C1531.0032,-122.1061 1531.0032,-140.991 1531.0032,-140.991"/>
<polygon fill="#000000" stroke="#000000" points="1527.5032,-140.9909 1531.0032,-150.991 1534.5032,-140.991 1527.5032,-140.9909"/>
</g>
<!-- DetallemodeloComponent -->
<g id="node12" class="node">
<title>DetallemodeloComponent</title>
<polygon fill="#ffffb3" stroke="#000000" points="1504.7506,-122 1341.2494,-122 1341.2494,-86 1504.7506,-86 1504.7506,-122"/>
<text text-anchor="middle" x="1423" y="-99.8" font-family="Times,serif" font-size="14.00" fill="#000000">DetallemodeloComponent</text>
</g>
<!-- DetallemodeloComponent&#45;&gt;AppModule -->
<g id="edge12" class="edge">
<title>DetallemodeloComponent&#45;&gt;AppModule</title>
<path fill="none" stroke="#000000" d="M1480.0235,-122.1061C1480.0235,-122.1061 1480.0235,-140.991 1480.0235,-140.991"/>
<polygon fill="#000000" stroke="#000000" points="1476.5236,-140.9909 1480.0235,-150.991 1483.5236,-140.991 1476.5236,-140.9909"/>
</g>
<!-- IndexadminComponent -->
<g id="node13" class="node">
<title>IndexadminComponent</title>
<polygon fill="#ffffb3" stroke="#000000" points="1323.2035,-122 1174.7965,-122 1174.7965,-86 1323.2035,-86 1323.2035,-122"/>
<text text-anchor="middle" x="1249" y="-99.8" font-family="Times,serif" font-size="14.00" fill="#000000">IndexadminComponent</text>
</g>
<!-- IndexadminComponent&#45;&gt;AppModule -->
<g id="edge13" class="edge">
<title>IndexadminComponent&#45;&gt;AppModule</title>
<path fill="none" stroke="#000000" d="M1249,-122.1243C1249,-136.7832 1249,-155 1249,-155 1249,-155 1445.2106,-155 1445.2106,-155"/>
<polygon fill="#000000" stroke="#000000" points="1445.2107,-158.5001 1455.2106,-155 1445.2106,-151.5001 1445.2107,-158.5001"/>
</g>
<!-- MarcaFilterPipe -->
<g id="node14" class="node">
<title>MarcaFilterPipe</title>
<polygon fill="#ffffb3" stroke="#000000" points="1156.4664,-122 1049.5336,-122 1049.5336,-86 1156.4664,-86 1156.4664,-122"/>
<text text-anchor="middle" x="1103" y="-99.8" font-family="Times,serif" font-size="14.00" fill="#000000">MarcaFilterPipe</text>
</g>
<!-- MarcaFilterPipe&#45;&gt;AppModule -->
<g id="edge14" class="edge">
<title>MarcaFilterPipe&#45;&gt;AppModule</title>
<path fill="none" stroke="#000000" d="M1103,-122.2819C1103,-137.9478 1103,-158 1103,-158 1103,-158 1445.2081,-158 1445.2081,-158"/>
<polygon fill="#000000" stroke="#000000" points="1445.2081,-161.5001 1455.2081,-158 1445.2081,-154.5001 1445.2081,-161.5001"/>
</g>
<!-- ModeloFilterPipe -->
<g id="node15" class="node">
<title>ModeloFilterPipe</title>
<polygon fill="#ffffb3" stroke="#000000" points="1031.2674,-122 916.7326,-122 916.7326,-86 1031.2674,-86 1031.2674,-122"/>
<text text-anchor="middle" x="974" y="-99.8" font-family="Times,serif" font-size="14.00" fill="#000000">ModeloFilterPipe</text>
</g>
<!-- ModeloFilterPipe&#45;&gt;AppModule -->
<g id="edge15" class="edge">
<title>ModeloFilterPipe&#45;&gt;AppModule</title>
<path fill="none" stroke="#000000" d="M974,-122.0352C974,-138.7344 974,-161 974,-161 974,-161 1445.0848,-161 1445.0848,-161"/>
<polygon fill="#000000" stroke="#000000" points="1445.0848,-164.5001 1455.0848,-161 1445.0848,-157.5001 1445.0848,-164.5001"/>
</g>
<!-- TipoequipoFilterPipe -->
<g id="node16" class="node">
<title>TipoequipoFilterPipe</title>
<polygon fill="#ffffb3" stroke="#000000" points="898.766,-122 763.234,-122 763.234,-86 898.766,-86 898.766,-122"/>
<text text-anchor="middle" x="831" y="-99.8" font-family="Times,serif" font-size="14.00" fill="#000000">TipoequipoFilterPipe</text>
</g>
<!-- TipoequipoFilterPipe&#45;&gt;AppModule -->
<g id="edge16" class="edge">
<title>TipoequipoFilterPipe&#45;&gt;AppModule</title>
<path fill="none" stroke="#000000" d="M831,-122.302C831,-140.2699 831,-165 831,-165 831,-165 1445.3387,-165 1445.3387,-165"/>
<polygon fill="#000000" stroke="#000000" points="1445.3388,-168.5001 1455.3387,-165 1445.3387,-161.5001 1445.3388,-168.5001"/>
</g>
<!-- RepuestoComponent -->
<g id="node17" class="node">
<title>RepuestoComponent</title>
<polygon fill="#ffffb3" stroke="#000000" points="744.9341,-122 611.0659,-122 611.0659,-86 744.9341,-86 744.9341,-122"/>
<text text-anchor="middle" x="678" y="-99.8" font-family="Times,serif" font-size="14.00" fill="#000000">RepuestoComponent</text>
</g>
<!-- RepuestoComponent&#45;&gt;AppModule -->
<g id="edge17" class="edge">
<title>RepuestoComponent&#45;&gt;AppModule</title>
<path fill="none" stroke="#000000" d="M678,-122.1686C678,-141.0898 678,-168 678,-168 678,-168 1445.2597,-168 1445.2597,-168"/>
<polygon fill="#000000" stroke="#000000" points="1445.2597,-171.5001 1455.2597,-168 1445.2597,-164.5001 1445.2597,-171.5001"/>
</g>
<!-- LoginComponent -->
<g id="node18" class="node">
<title>LoginComponent</title>
<polygon fill="#ffffb3" stroke="#000000" points="593.2758,-122 478.7242,-122 478.7242,-86 593.2758,-86 593.2758,-122"/>
<text text-anchor="middle" x="536" y="-99.8" font-family="Times,serif" font-size="14.00" fill="#000000">LoginComponent</text>
</g>
<!-- LoginComponent&#45;&gt;AppModule -->
<g id="edge18" class="edge">
<title>LoginComponent&#45;&gt;AppModule</title>
<path fill="none" stroke="#000000" d="M536,-122.308C536,-142.1455 536,-171 536,-171 536,-171 1445.0891,-171 1445.0891,-171"/>
<polygon fill="#000000" stroke="#000000" points="1445.0891,-174.5001 1455.0891,-171 1445.0891,-167.5001 1445.0891,-174.5001"/>
</g>
<!-- AppComponent  -->
<g id="node22" class="node">
<title>AppComponent </title>
<polygon fill="#80b1d3" stroke="#000000" points="1551.439,-252 1442.561,-252 1442.561,-216 1551.439,-216 1551.439,-252"/>
<text text-anchor="middle" x="1497" y="-229.8" font-family="Times,serif" font-size="14.00" fill="#000000">AppComponent </text>
</g>
<!-- AppModule&#45;&gt;AppComponent  -->
<g id="edge21" class="edge">
<title>AppModule&#45;&gt;AppComponent </title>
<path fill="none" stroke="#000000" stroke-dasharray="1,5" d="M1497,-187.1061C1497,-187.1061 1497,-205.991 1497,-205.991"/>
<polygon fill="#000000" stroke="#000000" points="1493.5001,-205.9909 1497,-215.991 1500.5001,-205.991 1493.5001,-205.9909"/>
</g>
<!-- routing -->
<g id="node20" class="node">
<title>routing</title>
<polygon fill="#8dd3c7" stroke="#000000" points="455.4435,-122 452.4435,-126 431.4435,-126 428.4435,-122 398.5565,-122 398.5565,-86 455.4435,-86 455.4435,-122"/>
<text text-anchor="middle" x="427" y="-99.8" font-family="Times,serif" font-size="14.00" fill="#000000">routing</text>
</g>
<!-- routing&#45;&gt;AppModule -->
<g id="edge19" class="edge">
<title>routing&#45;&gt;AppModule</title>
<path fill="none" stroke="#000000" d="M427,-122.0267C427,-142.7672 427,-174 427,-174 427,-174 1445.0547,-174 1445.0547,-174"/>
<polygon fill="#000000" stroke="#000000" points="1445.0548,-177.5001 1455.0547,-174 1445.0547,-170.5001 1445.0548,-177.5001"/>
</g>
<!-- AuthModule -->
<g id="node21" class="node">
<title>AuthModule</title>
<polygon fill="#8dd3c7" stroke="#000000" points="380.5482,-122 377.5482,-126 356.5482,-126 353.5482,-122 293.4518,-122 293.4518,-86 380.5482,-86 380.5482,-122"/>
<text text-anchor="middle" x="337" y="-99.8" font-family="Times,serif" font-size="14.00" fill="#000000">AuthModule</text>
</g>
<!-- AuthModule&#45;&gt;AppModule -->
<g id="edge20" class="edge">
<title>AuthModule&#45;&gt;AppModule</title>
<path fill="none" stroke="#000000" d="M337,-122.2921C337,-144.2057 337,-178 337,-178 337,-178 1445.0297,-178 1445.0297,-178"/>
<polygon fill="#000000" stroke="#000000" points="1445.0297,-181.5001 1455.0297,-178 1445.0296,-174.5001 1445.0297,-181.5001"/>
</g>
<!-- AuthGuard -->
<g id="node23" class="node">
<title>AuthGuard</title>
<ellipse fill="#fdb462" stroke="#000000" cx="215" cy="-104" rx="54.4566" ry="18"/>
<text text-anchor="middle" x="215" y="-99.8" font-family="Times,serif" font-size="14.00" fill="#000000">AuthGuard</text>
</g>
<!-- AuthGuard&#45;&gt;AppModule -->
<g id="edge22" class="edge">
<title>AuthGuard&#45;&gt;AppModule</title>
<path fill="none" stroke="#000000" d="M215,-122.2479C215,-145.0179 215,-181 215,-181 215,-181 1445.0744,-181 1445.0744,-181"/>
<polygon fill="#000000" stroke="#000000" points="1445.0745,-184.5001 1455.0744,-181 1445.0744,-177.5001 1445.0745,-184.5001"/>
</g>
<!-- AuthService -->
<g id="node24" class="node">
<title>AuthService</title>
<ellipse fill="#fdb462" stroke="#000000" cx="83" cy="-104" rx="59.1083" ry="18"/>
<text text-anchor="middle" x="83" y="-99.8" font-family="Times,serif" font-size="14.00" fill="#000000">AuthService</text>
</g>
<!-- AuthService&#45;&gt;AppModule -->
<g id="edge23" class="edge">
<title>AuthService&#45;&gt;AppModule</title>
<path fill="none" stroke="#000000" d="M83,-122.1532C83,-145.7566 83,-184 83,-184 83,-184 1445.0654,-184 1445.0654,-184"/>
<polygon fill="#000000" stroke="#000000" points="1445.0655,-187.5001 1455.0654,-184 1445.0654,-180.5001 1445.0655,-187.5001"/>
</g>
</g>
</svg>
