<?xml version="1.0" standalone="no"?>
<!DOCTYPE svg PUBLIC "-//W3C//DTD SVG 20010904//EN"
 "http://www.w3.org/TR/2001/REC-SVG-20010904/DTD/svg10.dtd">
<svg version="1.0" xmlns="http://www.w3.org/2000/svg"
 width="1152.000000pt" height="1152.000000pt" viewBox="0 0 1152.000000 1152.000000"
 preserveAspectRatio="xMidYMid meet">
<metadata>
Created by potrace 1.11, written by Peter Selinger 2001-2013
</metadata>
<g transform="translate(0.000000,1152.000000) scale(0.100000,-0.100000)"
fill="#000000" stroke="none">
<path d="M1143 9746 c-35 -13 -65 -21 -68 -18 -3 3 -5 0 -5 -6 0 -7 -3 -11 -7
-10 -25 5 -213 -93 -307 -161 -84 -60 -222 -190 -271 -256 -16 -22 -32 -42
-35 -45 -3 -3 -26 -36 -51 -75 -70 -108 -129 -240 -164 -366 -15 -51 -19 -72
-29 -129 -3 -14 -5 -25 -6 -25 -11 0 -14 -527 -14 -2875 0 -2466 2 -2844 21
-2925 2 -11 7 -33 10 -50 17 -99 149 -413 182 -435 5 -3 14 -16 21 -30 21 -41
123 -161 191 -225 65 -62 182 -153 209 -163 8 -3 17 -8 20 -11 10 -12 187
-104 197 -103 1 0 26 -8 55 -19 59 -22 56 -21 148 -46 61 -16 333 -18 4604
-20 2682 -2 4544 1 4550 6 6 5 25 12 41 15 38 6 117 29 175 50 61 22 214 98
218 108 2 4 10 8 18 8 8 0 14 5 14 10 0 6 5 10 11 10 14 0 161 115 214 168
113 113 175 195 262 352 11 19 31 64 45 100 14 36 29 74 33 85 4 11 9 25 11
30 1 6 9 37 18 70 9 33 19 75 22 94 3 18 8 43 10 55 3 11 7 74 9 139 2 66 5
121 7 123 2 2 1 29 -2 59 -3 31 -3 58 0 60 3 2 3 29 0 60 -3 31 -3 58 0 60 3
2 3 29 0 60 -3 31 -3 58 0 60 3 2 3 29 0 60 -3 31 -3 58 0 60 3 2 3 29 0 60
-3 30 -4 58 -2 60 7 7 5 112 -2 124 -4 5 -2 12 4 16 7 4 7 12 0 25 -6 10 -6
21 -2 24 4 2 5 32 2 66 -3 34 -3 63 0 65 3 2 3 29 0 60 -3 31 -3 58 0 60 3 2
3 29 0 60 -3 31 -3 58 0 60 3 2 3 29 0 60 -3 31 -3 58 0 60 3 2 3 29 0 60 -3
31 -3 58 0 60 3 2 3 29 0 60 -3 31 -3 58 0 60 3 2 3 29 0 60 -3 31 -3 58 0 60
3 2 3 29 0 60 -3 31 -3 58 0 60 3 2 3 29 0 60 -3 30 -4 58 -2 60 7 7 5 112 -2
124 -4 5 -2 12 4 16 7 4 7 12 0 25 -6 10 -6 21 -2 24 4 2 5 32 2 66 -3 34 -3
63 0 65 3 2 3 29 0 60 -3 31 -3 58 0 60 3 2 3 29 0 60 -3 31 -3 58 0 60 3 2 3
29 0 60 -3 31 -3 58 0 60 3 2 3 29 0 60 -3 31 -3 58 0 60 3 2 3 29 0 60 -3 31
-3 58 0 60 3 2 3 29 0 60 -3 31 -3 58 0 60 3 2 3 29 0 60 -3 31 -3 58 0 60 3
2 3 29 0 60 -3 30 -4 58 -2 60 7 7 5 112 -2 124 -4 5 -2 12 4 16 7 4 7 12 0
25 -6 10 -6 21 -2 24 4 2 5 32 2 66 -3 34 -3 63 0 65 3 2 3 29 0 60 -3 31 -3
58 0 60 3 2 3 29 0 60 -3 31 -3 58 0 60 3 2 3 29 0 60 -3 31 -3 58 0 60 3 2 3
29 0 60 -3 31 -3 58 0 60 3 2 3 29 0 60 -3 31 -3 58 0 60 3 2 3 29 0 60 -3 31
-3 58 0 60 3 2 3 29 0 60 -3 31 -3 58 0 60 3 2 3 29 0 60 -3 30 -4 58 -2 60 7
7 5 112 -2 124 -4 5 -2 12 4 16 7 4 7 12 0 25 -6 10 -6 21 -2 24 4 2 5 32 2
66 -3 34 -3 63 0 65 3 2 3 29 0 60 -3 31 -3 58 0 60 3 2 3 29 0 60 -3 31 -3
58 0 60 3 2 3 29 0 60 -3 31 -3 58 0 60 3 2 3 29 0 60 -3 31 -2 58 2 61 5 3 6
10 2 15 -3 5 -7 49 -9 97 -3 48 -7 98 -10 112 -3 14 -12 57 -20 95 -9 39 -17
75 -19 80 -2 6 -7 25 -11 43 -4 18 -12 35 -16 38 -5 3 -9 12 -9 21 0 14 -83
190 -113 238 -22 36 -51 80 -57 85 -3 3 -18 23 -34 45 -35 48 -177 190 -225
225 -18 14 -41 32 -50 40 -17 16 -135 85 -186 110 -16 8 -33 19 -37 25 -4 5
-8 6 -8 2 0 -5 -12 -1 -27 7 -16 9 -69 29 -119 46 l-92 30 -4628 -1 -4629 -1
-62 -22z"/>
</g>
</svg>
